<svg xmlns="http://www.w3.org/2000/svg" xmlns:xlink="http://www.w3.org/1999/xlink" width="300" height="300" viewBox="0 0 300 300"><defs><style>.a{fill:url(#a);}.b{fill:#664b9f;}.c{fill:#fff;}.d{fill:none;}</style><linearGradient id="a" x1="207.88" y1="172.72" x2="303.66" y2="286.86" gradientUnits="userSpaceOnUse"><stop offset="0.08" stop-color="#3d2e7c"/><stop offset="0.26" stop-color="#503c8c"/><stop offset="0.46" stop-color="#60479a"/><stop offset="0.61" stop-color="#664b9f"/></linearGradient></defs><title>nota-logo</title><path class="a" d="M129.6,218.27l117.84,78.39a17.41,17.41,0,0,0,27.66-14.09V114Z"/><path class="b" d="M275.1,37.76V20.82A20.88,20.88,0,0,0,254.28,0H45.72A20.88,20.88,0,0,0,24.9,20.82V282.06c0,9.42,7.26,17.52,16.68,17.92A17.35,17.35,0,0,0,52,297.07l206-136.87c9.3-6.18,17.05-11,17.05-20.67V37.76Z"/><rect class="c" x="62.09" y="47.93" width="153.49" height="18.89" rx="9.44"/><rect class="c" x="62.09" y="97.73" width="175.82" height="18.89" rx="9.44"/><rect class="c" x="62.09" y="147.54" width="104.62" height="18.89" rx="9.44"/></svg>